<!DOCTYPE svg PUBLIC "-//W3C//DTD SVG 1.1//EN" "http://www.w3.org/Graphics/SVG/1.1/DTD/svg11.dtd">
<!-- Uploaded to: SVG Repo, www.svgrepo.com, Transformed by: SVG Repo Mixer Tools -->
<svg width="64px" height="64px" viewBox="0 0 24 24" xmlns="http://www.w3.org/2000/svg" id="double-right-sign" class="icon glyph" fill="#ffffff" stroke="#ffffff" stroke-width="0.72">
<g id="SVGRepo_bgCarrier" stroke-width="0"/>
<g id="SVGRepo_tracerCarrier" stroke-linecap="round" stroke-linejoin="round"/>
<g id="SVGRepo_iconCarrier">
<path d="M11,11.81a.91.91,0,0,1,0,.38,1.39,1.39,0,0,1-.06.19s0,.07,0,.11l-5,9A1,1,0,0,1,5,22a1,1,0,0,1-.49-.13,1,1,0,0,1-.38-1.36L8.86,12,4.13,3.49a1,1,0,1,1,1.74-1l5,9s0,.07,0,.11A1.39,1.39,0,0,1,11,11.81Zm9,0a1.39,1.39,0,0,0-.06-.19s0-.07,0-.11l-5-9a1,1,0,1,0-1.74,1L17.86,12l-4.73,8.51a1,1,0,0,0,.38,1.36A1,1,0,0,0,14,22a1,1,0,0,0,.87-.51l5-9s0-.07,0-.11a1.06,1.06,0,0,0,.06-.19.91.91,0,0,0,0-.38Z" style="fill:#ffffff"/>
</g>
</svg>